<mxfile host="app.diagrams.net" modified="2021-05-26T10:34:15.928Z" agent="5.0 (Windows NT 10.0; Win64; x64) AppleWebKit/537.36 (KHTML, like Gecko) Chrome/90.0.4430.212 Safari/537.36" etag="h7mzQKzJvh7wFNz4QWey" version="14.7.0" type="github">
  <diagram id="8BAttbMlF8N3H_x5ClFg" name="Page-1">
    <mxGraphModel dx="1271" dy="464" grid="0" gridSize="10" guides="1" tooltips="1" connect="1" arrows="1" fold="1" page="0" pageScale="1" pageWidth="850" pageHeight="1100" math="0" shadow="0">
      <root>
        <mxCell id="0" />
        <mxCell id="1" parent="0" />
        <mxCell id="i9hp47q8fdTsSunotGjB-1" value="" style="rounded=0;whiteSpace=wrap;html=1;" vertex="1" parent="1">
          <mxGeometry x="145" y="50" width="560" height="100" as="geometry" />
        </mxCell>
        <mxCell id="i9hp47q8fdTsSunotGjB-2" value="HTML" style="rounded=0;whiteSpace=wrap;html=1;" vertex="1" parent="1">
          <mxGeometry x="170" y="80" width="80" height="40" as="geometry" />
        </mxCell>
        <mxCell id="i9hp47q8fdTsSunotGjB-8" value="Javascript" style="rounded=0;whiteSpace=wrap;html=1;" vertex="1" parent="1">
          <mxGeometry x="385" y="80" width="80" height="40" as="geometry" />
        </mxCell>
        <mxCell id="i9hp47q8fdTsSunotGjB-9" value="Images" style="rounded=0;whiteSpace=wrap;html=1;" vertex="1" parent="1">
          <mxGeometry x="500" y="80" width="80" height="40" as="geometry" />
        </mxCell>
        <mxCell id="i9hp47q8fdTsSunotGjB-10" value="Themeleaf" style="rounded=0;whiteSpace=wrap;html=1;" vertex="1" parent="1">
          <mxGeometry x="610" y="80" width="80" height="40" as="geometry" />
        </mxCell>
        <mxCell id="i9hp47q8fdTsSunotGjB-11" value="" style="rounded=0;whiteSpace=wrap;html=1;" vertex="1" parent="1">
          <mxGeometry x="230" y="180" width="380" height="60" as="geometry" />
        </mxCell>
        <mxCell id="i9hp47q8fdTsSunotGjB-12" value="CSS" style="rounded=0;whiteSpace=wrap;html=1;" vertex="1" parent="1">
          <mxGeometry x="280" y="80" width="80" height="40" as="geometry" />
        </mxCell>
        <mxCell id="i9hp47q8fdTsSunotGjB-13" value="RestFul请求" style="rounded=0;whiteSpace=wrap;html=1;" vertex="1" parent="1">
          <mxGeometry x="270" y="190" width="80" height="40" as="geometry" />
        </mxCell>
        <mxCell id="i9hp47q8fdTsSunotGjB-14" value="Get请求" style="rounded=0;whiteSpace=wrap;html=1;" vertex="1" parent="1">
          <mxGeometry x="390" y="190" width="80" height="40" as="geometry" />
        </mxCell>
        <mxCell id="i9hp47q8fdTsSunotGjB-16" value="Post请求" style="rounded=0;whiteSpace=wrap;html=1;" vertex="1" parent="1">
          <mxGeometry x="510" y="190" width="80" height="40" as="geometry" />
        </mxCell>
        <mxCell id="i9hp47q8fdTsSunotGjB-17" value="" style="rounded=0;whiteSpace=wrap;html=1;" vertex="1" parent="1">
          <mxGeometry x="255" y="270" width="330" height="110" as="geometry" />
        </mxCell>
        <mxCell id="i9hp47q8fdTsSunotGjB-18" value="视频观看服务" style="rounded=0;whiteSpace=wrap;html=1;" vertex="1" parent="1">
          <mxGeometry x="305" y="280" width="80" height="40" as="geometry" />
        </mxCell>
        <mxCell id="i9hp47q8fdTsSunotGjB-19" value="视频审核服务" style="rounded=0;whiteSpace=wrap;html=1;" vertex="1" parent="1">
          <mxGeometry x="470" y="280" width="80" height="40" as="geometry" />
        </mxCell>
        <mxCell id="i9hp47q8fdTsSunotGjB-20" value="用户信息更改" style="rounded=0;whiteSpace=wrap;html=1;" vertex="1" parent="1">
          <mxGeometry x="305" y="330" width="80" height="40" as="geometry" />
        </mxCell>
        <mxCell id="i9hp47q8fdTsSunotGjB-21" value="视频上传服务" style="rounded=0;whiteSpace=wrap;html=1;" vertex="1" parent="1">
          <mxGeometry x="470" y="330" width="80" height="40" as="geometry" />
        </mxCell>
        <mxCell id="i9hp47q8fdTsSunotGjB-22" value="Mybatis" style="rounded=0;whiteSpace=wrap;html=1;" vertex="1" parent="1">
          <mxGeometry x="385" y="400" width="80" height="40" as="geometry" />
        </mxCell>
        <mxCell id="i9hp47q8fdTsSunotGjB-27" value="" style="rounded=0;whiteSpace=wrap;html=1;" vertex="1" parent="1">
          <mxGeometry x="240" y="590" width="380" height="60" as="geometry" />
        </mxCell>
        <mxCell id="i9hp47q8fdTsSunotGjB-28" value="Windows操作系统" style="rounded=0;whiteSpace=wrap;html=1;" vertex="1" parent="1">
          <mxGeometry x="270" y="600" width="80" height="40" as="geometry" />
        </mxCell>
        <mxCell id="i9hp47q8fdTsSunotGjB-29" value="Java虚拟机" style="rounded=0;whiteSpace=wrap;html=1;" vertex="1" parent="1">
          <mxGeometry x="400" y="600" width="80" height="40" as="geometry" />
        </mxCell>
        <mxCell id="i9hp47q8fdTsSunotGjB-30" value="SpringBoot内嵌Tomcat运行时" style="rounded=0;whiteSpace=wrap;html=1;" vertex="1" parent="1">
          <mxGeometry x="510" y="600" width="80" height="40" as="geometry" />
        </mxCell>
        <mxCell id="i9hp47q8fdTsSunotGjB-32" value="" style="shape=image;verticalLabelPosition=bottom;labelBackgroundColor=#ffffff;verticalAlign=top;aspect=fixed;imageAspect=0;image=data:image/png,iVBORw0KGgoAAAANSUhEUgAAARoAAABPCAYAAAA0hwpKAAALE0lEQVR4Ae2dP0/bUBTF87n8gTww0CKKANEiQBUIaMG0tKWoIFQqUaC0VYssUcTC0qELCwuWurAwsLB0YLnVufZL7AdJSGI7TnwsGf97fnae7/3l3PueQ+Xg4EA4sw1oA7SBLG2gkmXlrJvGSxugDcAGCBoqOipa2kDmNkDQ0MgyNzKqGqoagoagIWhoA5nbAEFDI8vcyKhoqGgIGoKGoKENZG4DBA2NLHMjo6KhoiFoCBqChjaQuQ0QNDSyzI2MioaKhqAhaOTTp0+ysbEh6+vrsri4mJinp6fFnsfHx2VgYKDhPDExcec8u+61tTW97ubmJmHX53ZI0PT5A4aa2NnZUYdeXl6WhYWFKgAGBwcVFgAHIIDjh4eHifni4kLs+erqSppNl5eXd86z615dXdXrzs7OVqE1PDys9zczM6PH3rx5IwRR7ysigqbPQLO1tSVwYAMUwGRkZESddm9vT05OTqoAuL29bcaL3I/f3Nzo/Z2fnyvwoLIMiABEAyCood3dXSqhHrFfgqZHHlS9PMf29rYqETggwhmEOVAABihFhEm79IKSMgACTIeGhgQh2vz8vED5QLnVayfu764qImh6EDRQLVAso6Oj8uzZM4FSgQOWcUKIdnp6qvklKLfJyUlZWVmh2imYXRM0BXsg9b55ESYgh4LwAaoFiuX6+rqMbGn4mf/+/avJ7SdPnmjIhdCrXptyf34qh6ApOGj29/dlaWlJxsbG5OvXr/KQRGxDTyzJQYSMf/78UThD5SDEJFjyA4vd1gRNgUGDXMvTp0/lx48f8u/fv5IgIv2PCZUzNTUlHz58IGy6ZO8ETZca3ia+vf3u3TtNclLBpAMeKBwkjdlV3h1VQ9AUEDRwBjhFP/UYpYOLzmpB1znCKPZO5Q8bgqaAoEGXLXpTOKXfAsfHxzqmyFaQ3M4WPgRNwUCD3iWMD+GUTQtAJSKxji5wwiVbuMTbl6ApGGjw3hEG3kHmc8qmBRCa4pWLuCNwPVvoEDQFBc2XL1+y8bKS14reOygagiZbsNjgJmgKCBoMyvv48aMcHR2VHAvpfnz04HmeJ4D43NwcFU2Otk/Q5NjYNuXv20boBNBg+v79u37z4u1pTu23APIygDZezkSS/ffv3wRNznZP0OTc4PfBJb4vDhq4Fgab4Vv4/fv3pX2fqV3EIEzCqxp4HwzQNsMFCJp8wybYN0FTcNAYJzs7O9OffzBOw+5v0zLJJeCCVw+Q8EUuBmGSnVgnaAia0sfNtqJJupHoi5QmDAB0MPisrG9um7YBSPAGN1QffjgLkAFsjIIx5cySoCFoCJpYjsY4Rr0l3t6Gg+G3WdAljhALIQKcrJ/f7EbOCiERgII32aFcAFyovodMBA1BQ9C0ABrbqeCAUDtwQKgdfLsDQvgJTezH8V4JuaBGcL+AB+4fIEGXtAEqQiIAtZ13wQgagoag6QA0NniQrzC/SAelA8VjfhYTKgDb6EY3v+VrYAQHx4zz054ABlO/gYi5Pu4HM2Dy6NEjXUc4hONQbkiMpzERNAQNQZMiaBo5JfIacHg4nXF0AyPj8FBEcHp7RrhiytRbPuRcAxFzfQOgRvedxjGChqAhaHICTScOG1clBg72Mgs11Mk9x88laAgagqYHQBN32l5cJ2gIGoKGoMmcXQQNQUPQEDQETcEGkcZHrre7zpHBBXuozQbsZe6FJbgAFQ0VDRUNFU3mqCNoCBqChqAhaAqmstsNl+LnMXQq2ENl6JQ5Z/gzEV2weYKmC40eJ729TtAQNLZN9MM2QUPQpODZgfieL0HgiesFEnie+BKI52BpT764brg38H3xE3MggV08vh144jhe4zLx8nXWmaNhjoY5mh7N0QS+J54P0HjiuZ4EQQ0oSX83+wMt5weBBNHsu+4dMPluRRzXFbfO7DUkU/LKZougIWgImnZBg2/7SkWchOf54lYqUokUhHG0xNJ3pYIymBNqAYok2h8dr9aNayXqDMT3o+u7XqhSPFccB4BwpOI4gtsKvHDbcZwQHGYZQQTlbQXkuzg3ghHqhGIy221ABp+doCFoCJpOQON64sWd1XdVDYRQADhqjhx4joAVWFYBEicQzr0Dreh8GzSBL57rhorGBWCgaipav0ThVK3qUNFA8ajywQHfDcvWClXXFDQaXiFsclsLtaq1JFcIGoKGoOkINL6CIxQbEVhiUDBwEc2fGOhEqiehZkIAJUSLnhMqE8DDVjRBIOJ7rioXhYvraL7GhgjyOE4FkPNVMUHdQIlVKo6o0knADQwK7xNqSA81gFISJ/W3CBqChqDpEDRVCBgYmCX8zqybZdwXsa9i4NMiaKBaNEQKcylhCBTlYAwgcC1AwkNZBEhQNsjlBBIoPBASxW8oXA9Bg7qiPA3ApCEZ6rrnhLtV3NlD0BA0BE2noFF/DtWB+qEFFYQigEJSrRinjhQLNpG7iRdCPUb1WHWiuIZgmp+phVzYl8z7aMUhaBROrrgOQq6w9yke2oV3FMEq3jOloV6st6oN1hA0BA1BkwJoFBL1oKDJ35pyQa9ONRkcB4uyJnYM4Y05rurHHKvBCcpE1QZyKcjBqPqoHQ/hEeVoNEfki4su8Hq9ThHQ0A1eTQBX1Q8UkC8+QdMTPsNxNGUbR3MnyRu6/4P+AlIGYIkTQqi4fjQORtUKAIJCYa4ojHKwHuZufA/jYQCamKKxurfDkCpxoYaJY6tk3U0qGiqanqBzliM1sx4ZHHYX1/XBUhwgaAgagqbd0KkUiEjnQxI0BA1BQ9CkQ5MGtRA0BA1BQ9A0QEQ6hwgagoagIWjSoUmDWggagoagIWgaICKdQwQNQVN60Ozu7srQ0FA6HsVa7m0BgoagKT1o0HX++PHjTP4d7b1eV8KdBA1BQ9AcHMjk5GRq/2e6hBxp+pEJGoKGoDk4kJWVFfn8+XNTh2GB9lrg5OREFhYWaGs5jornKwg5NvZDRxTv7+/L6Oio3NzctOdJPKthCywvL8v6+jpBk6PtEzQ5NvZDQYNycITXr183dBgebL0Ffv36JS9evCBkcrZ7gibnBm8FNq9evZLNzU25vb1t3aN4RqIF0IYbGxsyPz9PyHTB5gmaLjR6q7CZmppicjiBjYdvADDHx8cyNjYmb9++JWS6ZO8ETZcavhXYbG9va0/U4uKi/rA2FU5z0FxfX8vPnz8VMGi3nZ0dQqaLtk7QdLHxW4ENykL6z83N6TgbhFTn5+fNPa5EJa6urgQ9StPT05pMf/nyJQFTEPsmaAryIFqBDnqlVldXZWZmRgYGBgTf2IeHhwqeMqkd9MqdnZ2J+Q2f8fFx7bbe2tqieimYXRM0BXsgrQDHlIXSAWwAnsHBQZmdnZW9vT39dr+4uOiLUcaXl5cKUgAV3dMjIyMyPDwsz58/13FHgI1pDy7zH5DXrM0Jmj4Ajf2QEVbBGTEoDWEEXmnA+1OAEQAEZ4USAITgwEWYoE5wP5hxfwYouH+otomJCQUpPgO6/plzKR5MbDuMbxM0fQia+AM263hZE8oHAIKzQgnAieHAcGTMUEI4hvnbt29Vh4fTHx0dVUFggPCQ5enpaaIe1IWwz1wHAMS1oU5wP5jNMQCFYVBvAcXYm70kaEoCGvvB37cNJQQYYV5aWqo6vHF8A4JWlhi3Ys43y7W1tep1AMD77oX7+gMw5jkSNAQNHZ02kLkNEDQ0ssyNzHyrcdlfKqWV50nQEDQEDW0gcxsgaGhkmRtZK998LNufqoegIWgIGtpA5jZA0NDIMjcyqpT+VCmtPFeChqAhaGgDmdvAf2AoNRSsrIM1AAAAAElFTkSuQmCC;" vertex="1" parent="1">
          <mxGeometry x="284" y="480" width="282" height="79" as="geometry" />
        </mxCell>
        <mxCell id="i9hp47q8fdTsSunotGjB-33" value="" style="endArrow=none;dashed=1;html=1;" edge="1" parent="1">
          <mxGeometry width="50" height="50" relative="1" as="geometry">
            <mxPoint x="40" y="170" as="sourcePoint" />
            <mxPoint x="830" y="170" as="targetPoint" />
          </mxGeometry>
        </mxCell>
        <mxCell id="i9hp47q8fdTsSunotGjB-34" value="" style="endArrow=none;dashed=1;html=1;" edge="1" parent="1">
          <mxGeometry width="50" height="50" relative="1" as="geometry">
            <mxPoint x="45" y="260" as="sourcePoint" />
            <mxPoint x="835" y="260" as="targetPoint" />
          </mxGeometry>
        </mxCell>
        <mxCell id="i9hp47q8fdTsSunotGjB-35" value="" style="endArrow=none;dashed=1;html=1;" edge="1" parent="1">
          <mxGeometry width="50" height="50" relative="1" as="geometry">
            <mxPoint x="45" y="390" as="sourcePoint" />
            <mxPoint x="835" y="390" as="targetPoint" />
          </mxGeometry>
        </mxCell>
        <mxCell id="i9hp47q8fdTsSunotGjB-36" value="" style="endArrow=none;dashed=1;html=1;" edge="1" parent="1">
          <mxGeometry width="50" height="50" relative="1" as="geometry">
            <mxPoint x="45" y="460" as="sourcePoint" />
            <mxPoint x="835" y="460" as="targetPoint" />
          </mxGeometry>
        </mxCell>
        <mxCell id="i9hp47q8fdTsSunotGjB-37" value="" style="endArrow=none;dashed=1;html=1;" edge="1" parent="1">
          <mxGeometry width="50" height="50" relative="1" as="geometry">
            <mxPoint x="45" y="570" as="sourcePoint" />
            <mxPoint x="835" y="570" as="targetPoint" />
          </mxGeometry>
        </mxCell>
        <mxCell id="i9hp47q8fdTsSunotGjB-38" value="" style="endArrow=none;dashed=1;html=1;" edge="1" parent="1">
          <mxGeometry width="50" height="50" relative="1" as="geometry">
            <mxPoint x="45" y="680" as="sourcePoint" />
            <mxPoint x="835" y="680" as="targetPoint" />
          </mxGeometry>
        </mxCell>
        <mxCell id="i9hp47q8fdTsSunotGjB-39" value="前端用户界面" style="text;html=1;strokeColor=none;fillColor=none;align=center;verticalAlign=middle;whiteSpace=wrap;rounded=0;" vertex="1" parent="1">
          <mxGeometry x="50" y="90" width="40" height="20" as="geometry" />
        </mxCell>
        <mxCell id="i9hp47q8fdTsSunotGjB-40" value="表现层" style="text;html=1;strokeColor=none;fillColor=none;align=center;verticalAlign=middle;whiteSpace=wrap;rounded=0;" vertex="1" parent="1">
          <mxGeometry x="50" y="210" width="40" height="20" as="geometry" />
        </mxCell>
        <mxCell id="i9hp47q8fdTsSunotGjB-41" value="业务层" style="text;html=1;strokeColor=none;fillColor=none;align=center;verticalAlign=middle;whiteSpace=wrap;rounded=0;" vertex="1" parent="1">
          <mxGeometry x="50" y="310" width="40" height="20" as="geometry" />
        </mxCell>
        <mxCell id="i9hp47q8fdTsSunotGjB-42" value="持久层" style="text;html=1;strokeColor=none;fillColor=none;align=center;verticalAlign=middle;whiteSpace=wrap;rounded=0;" vertex="1" parent="1">
          <mxGeometry x="50" y="420" width="40" height="20" as="geometry" />
        </mxCell>
        <mxCell id="i9hp47q8fdTsSunotGjB-43" value="数据库" style="text;html=1;strokeColor=none;fillColor=none;align=center;verticalAlign=middle;whiteSpace=wrap;rounded=0;" vertex="1" parent="1">
          <mxGeometry x="50" y="520" width="40" height="20" as="geometry" />
        </mxCell>
        <mxCell id="i9hp47q8fdTsSunotGjB-44" value="运行环境" style="text;html=1;strokeColor=none;fillColor=none;align=center;verticalAlign=middle;whiteSpace=wrap;rounded=0;" vertex="1" parent="1">
          <mxGeometry x="50" y="620" width="40" height="20" as="geometry" />
        </mxCell>
      </root>
    </mxGraphModel>
  </diagram>
</mxfile>
